<?xml version="1.0" encoding="UTF-8" standalone="no"?>
<!-- Created with Inkscape (http://www.inkscape.org/) -->
<svg xmlns:inkscape="http://www.inkscape.org/namespaces/inkscape" xmlns:rdf="http://www.w3.org/1999/02/22-rdf-syntax-ns#" xmlns="http://www.w3.org/2000/svg" sodipodi:docname="actions_lock-alt.svg" height="22" width="22" version="1.1" xmlns:cc="http://creativecommons.org/ns#" xmlns:dc="http://purl.org/dc/elements/1.1/" inkscape:version="0.48.1 r9760" xmlns:sodipodi="http://sodipodi.sourceforge.net/DTD/sodipodi-0.dtd">
 <title>Sitanoo - Small - Actions - Unlock alt</title>
 <defs></defs>
 <metadata>
  <rdf:RDF>
   <cc:Work rdf:about="">
    <dc:format>image/svg+xml</dc:format>
    <dc:type rdf:resource="http://purl.org/dc/dcmitype/StillImage"/>
    <dc:title>Sitanoo - Small - Actions - Unlock alt</dc:title>
    <cc:license rdf:resource="http://creativecommons.org/licenses/by/3.0/"/>
    <dc:date/>
    <dc:creator>
     <cc:Agent>
      <dc:title>Harenome Ranaivoarivony Razanajato</dc:title>
     </cc:Agent>
    </dc:creator>
    <dc:rights>
     <cc:Agent>
      <dc:title/>
     </cc:Agent>
    </dc:rights>
    <dc:publisher>
     <cc:Agent>
      <dc:title/>
     </cc:Agent>
    </dc:publisher>
    <dc:subject>
     <rdf:Bag>
      <rdf:li>unlock</rdf:li>
     </rdf:Bag>
    </dc:subject>
   </cc:Work>
   <cc:License rdf:about="http://creativecommons.org/licenses/by/3.0/">
    <cc:permits rdf:resource="http://creativecommons.org/ns#Reproduction"/>
    <cc:permits rdf:resource="http://creativecommons.org/ns#Distribution"/>
    <cc:requires rdf:resource="http://creativecommons.org/ns#Notice"/>
    <cc:requires rdf:resource="http://creativecommons.org/ns#Attribution"/>
    <cc:permits rdf:resource="http://creativecommons.org/ns#DerivativeWorks"/>
   </cc:License>
  </rdf:RDF>
 </metadata>
 <g inkscape:label="actions-icons" inkscape:groupmode="layer">
  <g inkscape:label="unlock-alt" inkscape:groupmode="layer">
   <path inkscape:connector-curvature="0" fill="#000" d="M11,2c-4.0798,0-5.9607,2.6252-6,4v1l2,1v-1c0-1.0763,0.7689-3,4-3,3.231,0,4,1.9055,4,3v4h-12v8.5c0,0.941,0.7023,1.5,1.5,1.5h13c0.905,0,1.5-0.56,1.5-1.5v-8.5h-2v-5c0-1.375-1.92-4-6-4zm0,11c1.105,0,2,0.895,2,2,0,0.74-0.403,1.373-1,1.719l0.25,2.281h-2.5l0.25-2.281c-0.5969-0.346-1-0.979-1-1.719,0-1.105,0.8954-2,2-2z"/>
  </g>
 </g>
 <sodipodi:namedview bordercolor="#666666" inkscape:pageshadow="2" pagecolor="#ffffff" inkscape:zoom="1" showgrid="false" borderopacity="1.0" inkscape:current-layer="actions-icons" inkscape:cx="-143.08189" inkscape:cy="-39.972375" inkscape:object-nodes="false" inkscape:pageopacity="0.0" inkscape:document-units="px"/>
</svg>
