<?xml version="1.0" encoding="UTF-8" standalone="no"?>
<!-- Created with Inkscape (http://www.inkscape.org/) -->
<svg xmlns:inkscape="http://www.inkscape.org/namespaces/inkscape" xmlns:rdf="http://www.w3.org/1999/02/22-rdf-syntax-ns#" xmlns="http://www.w3.org/2000/svg" sodipodi:docname="actions_repeat.svg" height="22" width="22" version="1.1" xmlns:cc="http://creativecommons.org/ns#" xmlns:dc="http://purl.org/dc/elements/1.1/" inkscape:version="0.48.1 r9760" xmlns:sodipodi="http://sodipodi.sourceforge.net/DTD/sodipodi-0.dtd">
 <title>Sitanoo - Small - Actions - Refresh</title>
 <defs></defs>
 <metadata>
  <rdf:RDF>
   <cc:Work rdf:about="">
    <dc:format>image/svg+xml</dc:format>
    <dc:type rdf:resource="http://purl.org/dc/dcmitype/StillImage"/>
    <dc:title>Sitanoo - Small - Actions - Refresh</dc:title>
    <cc:license rdf:resource="http://creativecommons.org/licenses/by/3.0/"/>
    <dc:date/>
    <dc:creator>
     <cc:Agent>
      <dc:title>Harenome Ranaivoarivony Razanajato</dc:title>
     </cc:Agent>
    </dc:creator>
    <dc:rights>
     <cc:Agent>
      <dc:title/>
     </cc:Agent>
    </dc:rights>
    <dc:publisher>
     <cc:Agent>
      <dc:title/>
     </cc:Agent>
    </dc:publisher>
    <dc:subject>
     <rdf:Bag>
      <rdf:li>refresh</rdf:li>
     </rdf:Bag>
    </dc:subject>
   </cc:Work>
   <cc:License rdf:about="http://creativecommons.org/licenses/by/3.0/">
    <cc:permits rdf:resource="http://creativecommons.org/ns#Reproduction"/>
    <cc:permits rdf:resource="http://creativecommons.org/ns#Distribution"/>
    <cc:requires rdf:resource="http://creativecommons.org/ns#Notice"/>
    <cc:requires rdf:resource="http://creativecommons.org/ns#Attribution"/>
    <cc:permits rdf:resource="http://creativecommons.org/ns#DerivativeWorks"/>
   </cc:License>
  </rdf:RDF>
 </metadata>
 <g inkscape:label="actions-icons" inkscape:groupmode="layer">
  <g inkscape:label="refresh" inkscape:groupmode="layer">
   <path d="M11,2c-4.9706,0-9,4.0294-9,9h2c0-3.866,3.134-7,7-7,2.106,0,4.725,1.0274,6,2.5l-1.25,0.75,4.25,2.25v-4.75l-1.25,0.75c-1.646-2.0733-4.897-3.5-7.75-3.5zm7,9c0,3.866-3.134,7-7,7-2.1056,0-4.725-1.027-6-2.5l1.25-0.75-4.25-2.25v4.75l1.25-0.75c1.6463,2.073,4.8967,3.5,7.75,3.5,4.971,0,9-4.029,9-9h-2z" fill-rule="evenodd" inkscape:connector-curvature="0" fill="#000"/>
  </g>
 </g>
 <sodipodi:namedview bordercolor="#666666" inkscape:pageshadow="2" pagecolor="#ffffff" inkscape:zoom="1" showgrid="false" borderopacity="1.0" inkscape:current-layer="actions-icons" inkscape:cx="0.41811" inkscape:cy="-33.972375" inkscape:object-nodes="false" inkscape:pageopacity="0.0" inkscape:document-units="px"/>
</svg>
