<?xml version="1.0" encoding="UTF-8" standalone="no"?>
<!-- Created with Inkscape (http://www.inkscape.org/) -->
<svg xmlns:inkscape="http://www.inkscape.org/namespaces/inkscape" xmlns:rdf="http://www.w3.org/1999/02/22-rdf-syntax-ns#" xmlns="http://www.w3.org/2000/svg" sodipodi:docname="folders_src.svg" height="22" width="22" version="1.1" xmlns:cc="http://creativecommons.org/ns#" xmlns:dc="http://purl.org/dc/elements/1.1/" inkscape:version="0.48.1 r9760" xmlns:sodipodi="http://sodipodi.sourceforge.net/DTD/sodipodi-0.dtd">
 <title>Sitanoo - Small - Folders - Sync</title>
 <defs></defs>
 <metadata>
  <rdf:RDF>
   <cc:Work rdf:about="">
    <dc:format>image/svg+xml</dc:format>
    <dc:type rdf:resource="http://purl.org/dc/dcmitype/StillImage"/>
    <dc:title>Sitanoo - Small - Folders - Sync</dc:title>
    <cc:license rdf:resource="http://creativecommons.org/licenses/by/3.0/"/>
    <dc:date/>
    <dc:creator>
     <cc:Agent>
      <dc:title>Harenome Ranaivoarivony Razanajato</dc:title>
     </cc:Agent>
    </dc:creator>
    <dc:rights>
     <cc:Agent>
      <dc:title/>
     </cc:Agent>
    </dc:rights>
    <dc:publisher>
     <cc:Agent>
      <dc:title/>
     </cc:Agent>
    </dc:publisher>
    <dc:subject>
     <rdf:Bag>
      <rdf:li>folder</rdf:li>
      <rdf:li>sync</rdf:li>
     </rdf:Bag>
    </dc:subject>
   </cc:Work>
   <cc:License rdf:about="http://creativecommons.org/licenses/by/3.0/">
    <cc:permits rdf:resource="http://creativecommons.org/ns#Reproduction"/>
    <cc:permits rdf:resource="http://creativecommons.org/ns#Distribution"/>
    <cc:requires rdf:resource="http://creativecommons.org/ns#Notice"/>
    <cc:requires rdf:resource="http://creativecommons.org/ns#Attribution"/>
    <cc:permits rdf:resource="http://creativecommons.org/ns#DerivativeWorks"/>
   </cc:License>
  </rdf:RDF>
 </metadata>
 <g inkscape:label="folders-icons" inkscape:groupmode="layer">
  <g inkscape:label="folder-sync" inkscape:groupmode="layer">
   <path d="M3,3v4h16v-2h-7l-3-2h-6zm-2,5v10.5c0,0.905,0.5837,1.5,1.5,1.5h11.531c-0.639-0.84-1.031-1.863-1.031-3,0-2.761,2.239-5,5-5,1.137,0,2.16,0.392,3,1.031v-5.031h-20zm17,6c-1.657,0-3,1.343-3,3h1c0-1.105,0.895-2,2-2,0.626,0,1.165,0.3,1.531,0.75l-0.531,0.25,2,1v-2.25l-0.531,0.531c-0.542-0.777-1.449-1.281-2.469-1.281zm-3,4v2.25l0.531-0.531c0.542,0.777,1.449,1.281,2.469,1.281,1.657,0,3-1.343,3-3h-1c0,1.105-0.895,2-2,2-0.626,0-1.165-0.3-1.531-0.75l0.531-0.25-2-1z" fill-rule="evenodd" inkscape:connector-curvature="0" fill="#000"/>
  </g>
 </g>
 <sodipodi:namedview bordercolor="#666666" inkscape:pageshadow="2" pagecolor="#ffffff" inkscape:zoom="1" showgrid="false" borderopacity="1.0" inkscape:current-layer="folders-icons" inkscape:cx="-81.58189" inkscape:cy="-7.972375" inkscape:object-nodes="false" inkscape:pageopacity="0.0" inkscape:document-units="px"/>
</svg>
