<?xml version="1.0" encoding="UTF-8" standalone="no"?>
<!-- Created with Inkscape (http://www.inkscape.org/) -->
<svg xmlns:inkscape="http://www.inkscape.org/namespaces/inkscape" xmlns:rdf="http://www.w3.org/1999/02/22-rdf-syntax-ns#" xmlns="http://www.w3.org/2000/svg" sodipodi:docname="status_sound-medium.svg" height="22" width="22" version="1.1" xmlns:cc="http://creativecommons.org/ns#" xmlns:dc="http://purl.org/dc/elements/1.1/" inkscape:version="0.48.1 r9760" xmlns:sodipodi="http://sodipodi.sourceforge.net/DTD/sodipodi-0.dtd">
 <title>Sitanoo - Small - Status - Sound max</title>
 <defs></defs>
 <metadata>
  <rdf:RDF>
   <cc:Work rdf:about="">
    <dc:format>image/svg+xml</dc:format>
    <dc:type rdf:resource="http://purl.org/dc/dcmitype/StillImage"/>
    <dc:title>Sitanoo - Small - Status - Sound max</dc:title>
    <cc:license rdf:resource="http://creativecommons.org/licenses/by/3.0/"/>
    <dc:date/>
    <dc:creator>
     <cc:Agent>
      <dc:title>Harenome Ranaivoarivony Razanajato</dc:title>
     </cc:Agent>
    </dc:creator>
    <dc:rights>
     <cc:Agent>
      <dc:title/>
     </cc:Agent>
    </dc:rights>
    <dc:publisher>
     <cc:Agent>
      <dc:title/>
     </cc:Agent>
    </dc:publisher>
    <dc:subject>
     <rdf:Bag>
      <rdf:li>status</rdf:li>
      <rdf:li>sound</rdf:li>
      <rdf:li>max</rdf:li>
     </rdf:Bag>
    </dc:subject>
   </cc:Work>
   <cc:License rdf:about="http://creativecommons.org/licenses/by/3.0/">
    <cc:permits rdf:resource="http://creativecommons.org/ns#Reproduction"/>
    <cc:permits rdf:resource="http://creativecommons.org/ns#Distribution"/>
    <cc:requires rdf:resource="http://creativecommons.org/ns#Notice"/>
    <cc:requires rdf:resource="http://creativecommons.org/ns#Attribution"/>
    <cc:permits rdf:resource="http://creativecommons.org/ns#DerivativeWorks"/>
   </cc:License>
  </rdf:RDF>
 </metadata>
 <g inkscape:label="status-icons" inkscape:groupmode="layer">
  <g inkscape:label="sound-max" inkscape:groupmode="layer">
   <path d="M18.812,2.5l-1.562,1.2188c1.714,1.9398,2.75,4.4888,2.75,7.2812,0,2.792-1.036,5.341-2.75,7.281l1.562,1.219c1.975-2.28,3.188-5.247,3.188-8.5,0-3.2532-1.213-6.22-3.188-8.5zm-3.124,2.4688l-1.594,1.25c1.178,1.2526,1.906,2.9261,1.906,4.7812,0,1.855-0.728,3.529-1.906,4.781l1.594,1.25c1.439-1.595,2.312-3.713,2.312-6.031,0-2.3184-0.873-4.4357-2.312-6.0312zm-7.688,1.0312l-4,3h-3v4h3l4,3v-10zm4.719,1.3125l-1.563,1.2187c0.529,0.6781,0.844,1.5428,0.844,2.4688s-0.315,1.791-0.844,2.469l1.563,1.219c0.797-1.019,1.281-2.294,1.281-3.688,0-1.3941-0.484-2.6688-1.281-3.6875z" fill-rule="evenodd" inkscape:connector-curvature="0" fill="#000"/>
  </g>
 </g>
 <sodipodi:namedview bordercolor="#666666" inkscape:pageshadow="2" pagecolor="#ffffff" inkscape:zoom="1" showgrid="false" borderopacity="1.0" inkscape:current-layer="status-icons" inkscape:cx="-125.58189" inkscape:cy="-3.972375" inkscape:object-nodes="false" inkscape:pageopacity="0.0" inkscape:document-units="px"/>
</svg>
